<svg width="254" height="244" viewBox="0 0 254 244" fill="none" xmlns="http://www.w3.org/2000/svg">
<path d="M151.689 20.1437L167.843 52.8658C169.859 56.9469 172.836 60.477 176.519 63.1524C180.202 65.8278 184.479 67.5682 188.984 68.224L225.101 73.4683C248.13 76.8162 257.323 105.113 240.662 121.361L214.526 146.834C211.269 150.01 208.832 153.931 207.425 158.258C206.018 162.585 205.683 167.189 206.449 171.674L212.614 207.642C216.516 230.578 192.472 248.075 171.878 237.243L139.577 220.285C135.547 218.167 131.062 217.06 126.509 217.06C121.956 217.06 117.472 218.167 113.441 220.285L81.1406 237.227C60.5381 248.059 36.4628 230.562 40.4039 207.627L46.569 171.658C47.3374 167.171 47.0037 162.564 45.5967 158.234C44.1896 153.904 41.7514 149.981 38.4919 146.802L12.3563 121.33C-4.30516 105.082 4.88793 76.785 27.9175 73.4371L64.0343 68.1928C68.5363 67.5422 72.813 65.8082 76.4968 63.1398C80.1806 60.4714 83.1614 56.9484 85.1831 52.8736L101.337 20.1515C111.631 -0.724132 141.387 -0.724132 151.689 20.1437V20.1437Z" fill="white"/>
<path d="M184.973 243.821C179.774 243.816 174.655 242.543 170.059 240.115L137.758 223.133C134.289 221.311 130.428 220.358 126.509 220.358C122.59 220.358 118.729 221.311 115.26 223.133L82.959 240.115C77.6765 242.885 71.7247 244.124 65.7755 243.691C59.8263 243.258 54.1165 241.171 49.2908 237.664C44.465 234.158 40.7154 229.373 38.4653 223.849C36.2151 218.325 35.554 212.281 36.5565 206.401L42.7216 170.433C43.3824 166.571 43.0955 162.607 41.8856 158.881C40.6758 155.155 38.5792 151.779 35.7761 149.042L9.64056 123.562C5.37312 119.394 2.35568 114.117 0.928851 108.325C-0.497973 102.533 -0.277367 96.4578 1.56577 90.7847C3.40891 85.1116 6.80118 80.0667 11.3597 76.2195C15.9181 72.3723 21.4613 69.8759 27.3634 69.0122L63.4724 63.7601L64.5962 71.4861L28.4872 76.7382C24.0265 77.3925 19.8373 79.2804 16.3924 82.1887C12.9474 85.0971 10.3837 88.9102 8.99044 93.198C7.59716 97.4858 7.42976 102.078 8.50711 106.455C9.58446 110.833 11.8637 114.823 15.0877 117.974L41.2233 143.447C44.9354 147.066 47.7124 151.533 49.3152 156.464C50.918 161.395 51.2985 166.641 50.4242 171.752L44.259 207.72C43.5024 212.165 44.003 216.733 45.7044 220.909C47.4058 225.084 50.2402 228.701 53.8879 231.351C57.5355 234.002 61.8513 235.58 66.3482 235.908C70.8451 236.236 75.3442 235.301 79.3379 233.208L111.639 216.226C116.229 213.815 121.336 212.555 126.521 212.555C131.706 212.555 136.813 213.815 141.403 216.226L173.704 233.208C177.697 235.301 182.196 236.236 186.693 235.908C191.19 235.58 195.506 234.002 199.154 231.351C202.801 228.701 205.636 225.084 207.337 220.909C209.039 216.733 209.539 212.165 208.783 207.72L202.617 171.752C201.743 166.641 202.124 161.395 203.726 156.464C205.329 151.533 208.106 147.066 211.818 143.447L237.954 117.974C241.178 114.823 243.457 110.833 244.534 106.455C245.612 102.078 245.444 97.4858 244.051 93.198C242.658 88.9102 240.094 85.0971 236.649 82.1887C233.204 79.2804 229.015 77.3925 224.554 76.7382L188.438 71.4939C183.302 70.7489 178.425 68.7663 174.227 65.7168C170.029 62.6674 166.635 58.6426 164.339 53.9896L148.185 21.2675C146.184 17.2273 143.094 13.8266 139.263 11.449C135.432 9.07139 131.014 7.81154 126.505 7.81154C121.997 7.81154 117.578 9.07139 113.747 11.449C109.917 13.8266 106.827 17.2273 104.826 21.2675L88.6793 53.9896C86.3833 58.6392 82.9917 62.6611 78.7963 65.7091C74.601 68.757 69.7278 70.7396 64.5962 71.4861L63.4724 63.7601C67.3518 63.1955 71.0359 61.6965 74.2075 59.3922C77.3791 57.0879 79.9432 54.0474 81.6791 50.5324L97.8333 17.8103C100.478 12.4632 104.565 7.96199 109.633 4.81486C114.701 1.66773 120.547 1.52588e-05 126.513 1.52588e-05C132.478 1.52588e-05 138.325 1.66773 143.393 4.81486C148.461 7.96199 152.548 12.4632 155.193 17.8103L171.347 50.5324C173.082 54.0464 175.645 57.0863 178.815 59.3905C181.985 61.6947 185.668 63.1943 189.546 63.7601L225.663 69.0044C231.565 69.8681 237.108 72.3645 241.666 76.2117C246.225 80.0589 249.617 85.1038 251.46 90.7769C253.303 96.4499 253.524 102.525 252.097 108.317C250.67 114.109 247.653 119.387 243.385 123.554L217.25 149.042C214.444 151.779 212.345 155.156 211.134 158.884C209.923 162.611 209.635 166.577 210.297 170.441L216.462 206.409C217.249 211.001 217.026 215.709 215.808 220.205C214.589 224.701 212.405 228.878 209.408 232.444C206.41 236.01 202.671 238.88 198.451 240.853C194.231 242.826 189.631 243.855 184.973 243.868V243.821Z" fill="#426572"/>
<path d="M75.8676 99.0001C78.7312 105.942 98.7767 119.827 111.868 99" stroke="#426572" stroke-width="7" stroke-linecap="round"/>
<path d="M141.868 99.0001C144.731 105.942 164.777 119.827 177.868 99" stroke="#426572" stroke-width="7" stroke-linecap="round"/>
<path d="M93.8676 161C99.1176 172.992 135.868 196.974 159.868 161" stroke="#426572" stroke-width="7" stroke-linecap="round"/>
</svg>
